# xmcd
# Track frame offsets:
# 150
# 7265
# 15117
# 19400
# 32080
# 34970
# 71707
# 84305
# 96429
# 108177
# 119522
# 130502
#
# Disc length: 1940 seconds
# Revision: 0
# Processed by: cddbd v1.5.1PL2 Copyright (c) Steve Scherf et al.
# Submitted via: VisiTrax 2.9.10.228 - For more info visit www.synapsa.com
#
DISCID=9507920c
DTITLE=BANDA DELL'ATM E DEGLI ALPINI - COME FOLGORE
DYEAR=1900
DGENRE=
TTITLE0=BANDA DELL'ATM - FLICK FLOCK
TTITLE1=BANDA DELL'ATM - LA LEGGENDA DEL PIAVE
TTITLE2=BANDA DELL'ATM - MARCIA D'ORDINANZA DEI BERSAGLIERI
TTITLE3=BANDA DELL'ATM - MARCIA D'ORDINANZA DELLA MARINA MILITARE
TTITLE4=BANDA DELL'ATM - PASSO DI CORSA DEI BERSAGLIERI
TTITLE5=BANDA DELL'ATM - RAPSODIA DI CANZONI DEL 1848
TTITLE6=BANDA MILITARE DEGLI ALPINI - COME FOLGORE DEL CIELO
TTITLE7=BANDA MILITARE DEGLI ALPINI - FIERI ALPINI (INNO DEGLI ALPINI)
TTITLE8=BANDA MILITARE DEGLI ALPINI - IL CORREDO DEL SOLDATO
TTITLE9=BANDA MILITARE DEGLI ALPINI - INNO DEL REGGIMENTO S. MARCO
TTITLE10=BANDA MILITARE DEGLI ALPINI - INTERNAZIONALE
TTITLE11=BANDA MILITARE DEGLI ALPINI - LA FEDELISSIMA
EXTD=
EXTT0=
EXTT1=
EXTT2=
EXTT3=
EXTT4=
EXTT5=
EXTT6=
EXTT7=
EXTT8=
EXTT9=
EXTT10=
EXTT11=
PLAYORDER=
